# xmcd
#
# Track frame offsets: 
#        150
#        13712
#        28722
#        43100
#        58297
#        71777
#        85252
#        98057
#        111325
#        124700
#        137945
#        152417
#        166560
#        181692
#        194332
#        209817
#        225610
#        237385
#
# Disc length: 3354 seconds
#
# Revision: 9
# Processed by: cddbd v1.5.2PL0 Copyright (c) Steve Scherf et al.
# Submitted via: ExactAudioCopyFreeDBPlugin 1.0
#
DISCID=fa0d1812
DTITLE=Bessie Smith - The Essential Bessie Smith [CD 2)
DYEAR=1997
DGENRE=Blues
TTITLE0=Alexander's Ragtime Band
TTITLE1=There'll Be a Hot Time in the Old Town Tonight
TTITLE2=Trombone Cholly
TTITLE3=Send Me to the 'Lectric Chair
TTITLE4=A Good Man is Hard to Find
TTITLE5=Dyin' by the Hour
TTITLE6=Me and My Gin
TTITLE7=Kitchen Man
TTITLE8=Nobody Knows You When You're Down and Out
TTITLE9=On Revival Day (A Rhythmic Spiritual)
TTITLE10=Moan, You Moaners
TTITLE11=Black Mountain Blues
TTITLE12=Shipwreck Blues
TTITLE13=Need a Little Sugar in My Bowl
TTITLE14=Do Your Duty
TTITLE15=Gimme a Pigfoot and a Bottle of Beer
TTITLE16=Take Me for a Buggy Ride
TTITLE17=Down in the Dumps
EXTD=ID3G: 0
EXTT0=
EXTT1=
EXTT2=
EXTT3=
EXTT4=
EXTT5=
EXTT6=
EXTT7=
EXTT8=
EXTT9=
EXTT10=
EXTT11=
EXTT12=
EXTT13=
EXTT14=
EXTT15=
EXTT16=
EXTT17=
PLAYORDER=
